<svg xmlns="http://www.w3.org/2000/svg" width="87.668" height="102.121" viewBox="0 0 87.668 102.121"><defs><style>.a,.c{fill:#fff;}.a{stroke:#d4f0f9;stroke-width:8px;}.b{fill:#1d1d1b;}.c{stroke:#f7dfe7;stroke-miterlimit:10;stroke-width:6px;}.d{fill:#fc423f;}.e{stroke:none;}.f{fill:none;}</style></defs><g transform="translate(-137.234 -314.263)"><g transform="translate(141.234 332.717)"><ellipse class="a" cx="39.834" cy="39.834" rx="39.834" ry="39.834" transform="translate(0 0)"/><g transform="translate(18.498 17.009)"><g transform="translate(23.789 0)"><path class="b" d="M1683.213,6311c-2.4,6.74-1.429,10.795,2.167,11.9,5.329,1.636,7.866-6.4,7.969-9.429C1693.348,6313.467,1683.213,6310.994,1683.213,6311Z" transform="translate(-1681.897 -6279.875)"/><path class="b" d="M1709.586,5960.727c3.8-7.43,3.4-10.874,2.279-14.767-1.764-6.147-5.937-7.812-9.509-7.618-4.55.247-7.734,8.31-6.067,15.276,1.919,8.017,1.3,8.5.738,12.918l9.582,2.146A35.029,35.029,0,0,1,1709.586,5960.727Z" transform="translate(-1694.675 -5938.328)"/></g><g transform="translate(0 4.279)"><path class="b" d="M1497.028,6358.087c2.709,6.621,1.932,10.718-1.607,11.99-5.247,1.883-8.158-6.028-8.4-9.046Z" transform="translate(-1479.503 -6327.314)"/><path class="b" d="M1400.554,6012.269c-4.147-7.243-3.9-10.7-2.968-14.644,1.474-6.223,5.565-8.081,9.142-8.054,4.557.034,8.115,7.939,6.775,14.976-1.542,8.1-.9,8.547-.132,12.938l-9.471,2.592A35.044,35.044,0,0,0,1400.554,6012.269Z" transform="translate(-1397.018 -5989.57)"/></g></g></g><g transform="translate(151.701 314.263)"><g class="c" transform="translate(0 0)"><circle class="e" cx="16.826" cy="16.826" r="16.826"/><circle class="f" cx="16.826" cy="16.826" r="13.826"/></g></g><g transform="translate(161.078 323.338)"><rect class="d" width="15.01" height="4.888" rx="2.444" transform="translate(15.01 9.949) rotate(180)"/><rect class="d" width="15.01" height="4.888" rx="2.444" transform="translate(5.061 15.01) rotate(-90)"/></g></g></svg>