<svg xmlns="http://www.w3.org/2000/svg" xmlns:xlink="http://www.w3.org/1999/xlink" width="374.654" height="387.116" viewBox="0 0 374.654 387.116">
  <defs>
    <style>
      .cls-1 {
        fill: none;
        stroke: #707070;
      }

      .cls-2 {
        fill: #f0fcfc;
      }

      .cls-3 {
        fill: #fceff3;
      }

      .cls-4 {
        clip-path: url(#clip-path);
      }

      .cls-5 {
        fill: #fc423f;
      }

      .cls-6, .cls-7 {
        stroke: none;
      }

      .cls-7 {
        fill: rgba(0,20,177,0.88);
      }
    </style>
    <clipPath id="clip-path">
      <path id="Pfad_66" data-name="Pfad 66" class="cls-1" d="M3414.138,905.581l71.179-111.4-61.92,13.31-10.706,98.088Z" transform="translate(-3129 -406)"/>
    </clipPath>
  </defs>
  <g id="Gruppe_187" data-name="Gruppe 187" transform="translate(0 -226)">
    <g id="Gruppe_186" data-name="Gruppe 186">
      <g id="Pfad_61" data-name="Pfad 61" class="cls-3" transform="translate(106 313)">
        <path class="cls-6" d="M82,0A82,82,0,1,1,0,82,82,82,0,0,1,82,0Z"/>
        <path class="cls-7" d="M 82 10 C 42.29906463623047 10 10 42.29906463623047 10 82 C 10 121.7009429931641 42.29906463623047 154 82 154 C 121.7009429931641 154 154 121.7009429931641 154 82 C 154 42.29906463623047 121.7009429931641 10 82 10 M 82 0 C 127.2873382568359 0 164 36.71265411376953 164 82 C 164 127.2873382568359 127.2873382568359 164 82 164 C 36.71265411376953 164 0 127.2873382568359 0 82 C 0 36.71265411376953 36.71265411376953 0 82 0 Z"/>
      </g>
      <g id="Gruppe_maskieren_3" data-name="Gruppe maskieren 3" class="cls-4" transform="translate(-108 -85)">
        <path id="Pfad_44" data-name="Pfad 44" class="cls-5" d="M69.441,0V69.44A69.445,69.445,0,0,1,0,0Z" transform="translate(365.772 481.521) rotate(180)"/>
      </g>
    </g>
  </g>
</svg>
