<svg width="1150" height="400" viewBox="0 0 1150 400" fill="none" xmlns="http://www.w3.org/2000/svg">
<path d="M393.48 257.76C402.44 257.76 408.87 252.72 408.87 244.4C408.87 237.05 404.74 232.99 397.33 230.13L390.75 227.61C385.71 225.65 383.33 223.62 383.33 219.07C383.33 214.52 387.6 211.44 392.99 211.44C397.54 211.44 400.55 213.47 403.14 216.55L407.27 213.19C404.61 209.41 399.5 206.4 393.21 206.4C384.6 206.4 378.03 211.37 378.03 219.13C378.03 225.92 381.32 229.76 389.02 232.7L396.36 235.5C400.91 237.25 403.57 240.19 403.57 244.53C403.57 249.64 399.09 252.72 393.57 252.72C387.55 252.72 383.56 250.06 380.77 245.65L376.36 248.8C378.58 253.77 385.22 257.76 393.48 257.76ZM343.91 257.76C355.25 257.76 363.08 250.06 363.08 237.68V207.24H357.76V237.82C357.76 247.41 352.23 252.73 343.91 252.73C335.58 252.73 330.05 247.41 330.05 237.82V207.24H324.73V237.68C324.73 250.07 332.57 257.76 343.91 257.76ZM278.8 228.93V212.21H289.09C295.39 212.21 299.02 215.08 299.02 220.61C299.02 226.14 295.38 228.94 289.09 228.94H278.8V228.93ZM273.48 256.92H278.8V233.83H284.47L304.13 256.92H311.06L291.47 233.9C299.52 233.27 304.41 228.16 304.41 220.61C304.41 212.49 298.81 207.25 289.72 207.25H273.48V256.92ZM243.88 256.92H249.2V207.24H243.88V256.92ZM200.08 256.92H204.42L225.76 207.24H219.88L202.25 248.24L184.62 207.24H178.67L200.08 256.92Z" fill="white"/>
<path d="M394.03 200.51C402.99 200.51 409.42 195.47 409.42 187.15C409.42 179.8 405.29 175.74 397.87 172.88L391.29 170.36C386.25 168.4 383.87 166.37 383.87 161.82C383.87 157.27 388.14 154.19 393.53 154.19C398.08 154.19 401.09 156.22 403.68 159.3L407.81 155.94C405.15 152.16 400.04 149.15 393.74 149.15C385.13 149.15 378.56 154.12 378.56 161.88C378.56 168.67 381.85 172.51 389.54 175.45L396.89 178.25C401.44 180 404.1 182.94 404.1 187.28C404.1 192.39 399.62 195.47 394.1 195.47C388.08 195.47 384.09 192.81 381.29 188.4L376.88 191.55C379.13 196.52 385.78 200.51 394.03 200.51ZM342.18 199.67H346.52L367.86 149.99H361.98L344.35 190.99L326.72 149.99H320.77L342.18 199.67Z" stroke="white" stroke-width="2" stroke-miterlimit="1.788"/>
<path d="M283.83 169.73V160.21H290.97C294.26 160.21 296.64 161.96 296.64 164.97C296.64 167.84 294.26 169.73 290.97 169.73H283.83V169.73ZM272.71 199.67H283.83V179.17H285.65L302.16 199.67H315.52L297.96 177.77C304.26 175.53 307.68 171.4 307.68 164.97C307.68 156.71 301.66 150 292.29 150H272.7V199.67H272.71ZM244.79 199.67H255.92V149.99H244.79V199.67ZM177.4 199.67H187.4L197.34 166.92L207.2 199.67H217.28L232.74 149.99H220.85L211.82 181.69L202.16 149.99H192.38L182.72 181.55L173.69 149.99H161.94L177.4 199.67Z" fill="white"/>
<path d="M523.59 71.5699C526.4 71.6499 529.06 72.8299 531.02 74.8399C594.16 137.98 594.16 240.69 531.02 303.83C467.88 366.97 365.17 366.97 302.03 303.83C297.74 299.67 297.64 292.83 301.8 288.55C305.96 284.26 312.8 284.16 317.08 288.32C317.16 288.4 317.23 288.47 317.31 288.55C372.19 343.43 460.85 343.43 515.74 288.55C570.62 233.67 570.62 145.01 515.74 90.1199C511.46 85.9599 511.36 79.1199 515.52 74.8399C517.63 72.6699 520.56 71.4799 523.59 71.5699Z" fill="black"/>
<path d="M416.53 49.01C466.59 49.01 513 75.76 538 119.17C563.08 162.57 563.08 216.1 538 259.5C513 302.91 466.59 329.66 416.53 329.66C410.56 329.75 405.65 324.99 405.56 319.02C405.47 313.05 410.23 308.14 416.2 308.05C416.31 308.05 416.42 308.05 416.54 308.05C458.92 308.05 498.15 285.43 519.29 248.7V248.69L519.3 248.68C540.53 211.94 540.53 166.71 519.3 129.98L519.29 129.97V129.96C498.15 93.24 458.92 70.61 416.54 70.61C410.57 70.7 405.66 65.94 405.57 59.97C405.48 54 410.24 49.09 416.21 49C416.3 49.01 416.41 49.01 416.53 49.01Z" fill="#DE0000"/>
<path d="M416.53 70.72C446.94 70.72 477.36 82.3 500.51 105.45C546.74 151.68 546.73 227.02 500.52 273.32C496.35 277.59 489.5 277.66 485.24 273.48C480.97 269.31 480.9 262.46 485.08 258.2C485.13 258.15 485.18 258.1 485.23 258.05C523.2 220.01 523.2 158.69 485.24 120.73C447.19 82.68 385.9 82.68 347.85 120.73C343.69 125.01 336.85 125.11 332.57 120.96C328.29 116.81 328.19 109.96 332.34 105.68C332.42 105.6 332.49 105.53 332.57 105.45C355.7 82.29 386.11 70.72 416.53 70.72Z" fill="#FFCF00"/>
<path fill-rule="evenodd" clip-rule="evenodd" d="M628 83C629.657 83 631 84.3431 631 86L631 317C631 318.657 629.657 320 628 320C626.343 320 625 318.657 625 317L625 86C625 84.3431 626.343 83 628 83Z" fill="white"/>
<path d="M683.165 226H692.651V208.307H702.673C714.767 208.307 721.261 201.045 721.261 190.972C721.261 180.974 714.844 173.636 702.801 173.636H683.165V226ZM692.651 200.508V181.562H701.344C708.452 181.562 711.597 185.398 711.597 190.972C711.597 196.545 708.452 200.508 701.395 200.508H692.651Z" fill="white"/>
<path d="M736.701 226H746.187V206.824H755.851L766.13 226H776.715L765.388 205.239C771.55 202.758 774.797 197.491 774.797 190.383C774.797 180.386 768.354 173.636 756.337 173.636H736.701V226ZM746.187 198.949V181.562H754.88C761.962 181.562 765.133 184.81 765.133 190.383C765.133 195.957 761.962 198.949 754.931 198.949H746.187Z" fill="white"/>
<path d="M837.519 199.818C837.519 182.892 827.189 172.92 813.459 172.92C799.703 172.92 789.399 182.892 789.399 199.818C789.399 216.719 799.703 226.716 813.459 226.716C827.189 226.716 837.519 216.744 837.519 199.818ZM827.982 199.818C827.982 211.733 821.999 218.202 813.459 218.202C804.945 218.202 798.936 211.733 798.936 199.818C798.936 187.903 804.945 181.435 813.459 181.435C821.999 181.435 827.982 187.903 827.982 199.818Z" fill="white"/>
<path d="M874.346 173.636V210.455C874.32 215.977 871.763 218.918 867.212 218.918C862.968 218.918 860.13 216.335 860.053 212.091H850.618C850.618 221.756 857.675 226.716 866.854 226.716C876.954 226.716 883.729 220.58 883.755 210.455V173.636H874.346Z" fill="white"/>
<path d="M901.246 226H935.507V218.048H910.732V203.756H933.539V195.804H910.732V181.588H935.303V173.636H901.246V226Z" fill="white"/>
<path d="M952.18 226H961.666V210.403L967.47 203.551L983.092 226H994.496L974.067 197.133L994.317 173.636H982.734L962.305 197.696H961.666V173.636H952.18V226Z" fill="white"/>
<path d="M1005.81 181.588H1021.99V226H1031.4V181.588H1047.58V173.636H1005.81V181.588Z" fill="white"/>
<path d="M120.34 196.67H133.44L129.48 209.15H116.38L120.34 196.67ZM138.96 179L134.73 192.37H121.64L125.8 179H121.23L117.07 192.37H106.97V196.67H115.7L111.75 209.15H102V213.45H110.46L106.08 227.43H110.72L115.01 213.45H128.18L123.82 227.43H128.39L132.69 213.45H142.92V209.15H134.05L138.01 196.67H147.83V192.37H139.31L143.47 179H138.96Z" fill="white"/>
</svg>
